<svg width="14" height="14" viewBox="0 0 14 14" fill="none" xmlns="http://www.w3.org/2000/svg">
<path d="M0.66812 6.63831L6.87499 0.431436C6.96752 0.338173 7.07765 0.264232 7.19901 0.21391C7.32036 0.163589 7.4505 0.137891 7.58187 0.138311L13.375 0.138311C13.5076 0.138311 13.6348 0.190989 13.7285 0.284757C13.8223 0.378526 13.875 0.505702 13.875 0.638311V6.43144C13.8754 6.56281 13.8497 6.69295 13.7994 6.8143C13.7491 6.93565 13.6751 7.04579 13.5819 7.13831L7.37499 13.3452C7.28213 13.4381 7.17188 13.5117 7.05054 13.562C6.9292 13.6123 6.79915 13.6382 6.66781 13.6382C6.53647 13.6382 6.40641 13.6123 6.28507 13.562C6.16373 13.5117 6.05348 13.4381 5.96062 13.3452L0.66812 8.05269C0.575237 7.95982 0.501557 7.84958 0.451288 7.72823C0.401019 7.60689 0.375146 7.47684 0.375146 7.3455C0.375146 7.21416 0.401019 7.0841 0.451288 6.96276C0.501557 6.84142 0.575237 6.73117 0.66812 6.63831ZM6.66812 12.6383L12.875 6.43144V1.13831L7.58187 1.13831L1.375 7.34519L6.66812 12.6383ZM9.87499 3.38831C9.87499 3.53665 9.91898 3.68165 10.0014 3.80499C10.0838 3.92832 10.2009 4.02445 10.338 4.08122C10.475 4.13799 10.6258 4.15284 10.7713 4.1239C10.9168 4.09496 11.0504 4.02353 11.1553 3.91864C11.2602 3.81375 11.3316 3.68011 11.3606 3.53463C11.3895 3.38914 11.3747 3.23834 11.3179 3.1013C11.2611 2.96425 11.165 2.84712 11.0417 2.76471C10.9183 2.6823 10.7733 2.63831 10.625 2.63831C10.4261 2.63831 10.2353 2.71733 10.0947 2.85798C9.95401 2.99863 9.87499 3.1894 9.87499 3.38831Z" fill="#F3691C"/>
</svg>
